<svg xmlns="http://www.w3.org/2000/svg" xmlns:xlink="http://www.w3.org/1999/xlink" width="70.604" height="70.68" viewBox="0 0 70.604 70.68"><defs><style>.a{fill:none;}.b{clip-path:url(#a);}.c{fill:#a0d9f6;}.d{fill:#fce9ea;}.e{fill:#cfe07d;}.f{fill:#fefefe;}.g{fill:#7ea701;}.h{fill:#f7b970;}.i{fill:#fbce77;}</style><clipPath id="a"><rect class="a" width="70.604" height="70.68"/></clipPath></defs><g transform="translate(-8180.026 -5422.614)"><g transform="translate(8180.026 5422.614)"><g class="b" transform="translate(0 0)"><path class="c" d="M8215.325,5422.551a35.3,35.3,0,0,0-20.141,64.289,19.259,19.259,0,0,1,12.435-13.039q.384-.133.776-.254l.124-.039q.921-.278,1.866-.474l.193-.038q.505-.1,1.016-.181.359-.056.719-.1c.087-.011.173-.023.259-.033.326-.038.651-.069.978-.094h3.567c.327.024.651.057.974.093.091.01.182.023.272.034q.5.062.992.145c.235.04.469.083.7.129.079.016.16.03.238.047q.932.2,1.824.462l.22.068q.333.1.661.217a19.265,19.265,0,0,1,12.478,13.046,35.3,35.3,0,0,0-20.152-64.281Zm0,50.03a16.617,16.617,0,0,1-16.605-16.065c-.011-.006-.021-.011-.03-.018a16.021,16.021,0,0,1,7.283-14.275l.074-.051c.162-.109.327-.213.491-.316.065-.041.128-.083.194-.122a15.4,15.4,0,0,1,8.05-2.378c.182-.006.361-.013.544-.013s.343.007.515.012a14.621,14.621,0,0,1,6.178,1.394,16.617,16.617,0,0,1,4.258,2.717,15.769,15.769,0,0,1,5.668,13.033l-.013.008a16.618,16.618,0,0,1-16.606,16.075Zm0,0" transform="translate(-8180.025 -5422.556)"/></g></g><path class="d" d="M8404.092,5620.174l.073-.051-.073.051Zm9.867-2.869c-.172,0-.343-.012-.516-.012s-.361.007-.543.013c.174,0,.348.007.519.019.18-.011.36-.018.54-.02Zm-3.255,9.872c-3.194,5.6-8.606,10.567-13.866,7.291a16.615,16.615,0,0,0,33.212-.01c-4.4,2.736-15.921-1.233-19.346-7.281Zm-6.048-7.37c.066-.04.129-.083.194-.122-.065.04-.128.082-.194.122Zm15.48-1.107a17.978,17.978,0,0,1,4.258,2.717,16.651,16.651,0,0,0-4.258-2.717Zm0,0" transform="translate(-198.118 -177.893)"/><path class="e" d="M8382.763,6004.8l.219.068-.219-.068Zm-11.734-.466.193-.038-.193.038Zm-1.99.513.124-.039-.124.039Zm14.605.238.15.053a8.232,8.232,0,0,1-.722,1.525c1.183,1.821.886,9.76-.891,8.512l-3.111-2.19-3.1-2.183.2-.143c-.067,0-.135,0-.2,0s-.143,0-.213-.005l.2.144-3.1,2.183-3.111,2.19c-1.786,1.25-2.083-6.719-.889-8.521a8.224,8.224,0,0,1-.714-1.512l.118-.042a19.256,19.256,0,0,0-12.436,13.039,35.3,35.3,0,0,0,40.293-.008,19.262,19.262,0,0,0-12.477-13.047Zm-2.943-.795c.079.016.16.03.238.047-.078-.017-.158-.032-.238-.047Zm-7.743-.275c.087-.011.172-.023.26-.033-.088.01-.173.021-.26.033Zm5.777-.034c.091.01.181.023.271.034l-.271-.034Zm0,0" transform="translate(-160.643 -531.243)"/><path class="f" d="M8499.412,6005.667c.237-.358.533-.474.888-.225l3.111,2.19,2.9,2.039c.071,0,.142,0,.213,0s.136,0,.2,0l2.9-2.039,3.11-2.19c.356-.252.653-.132.891.234a8.285,8.285,0,0,0,.723-1.525l-.151-.053c-.22-.076-.439-.148-.661-.216-.073-.023-.146-.047-.22-.069q-.9-.269-1.824-.462c-.078-.017-.159-.031-.238-.047q-.842-.168-1.693-.274c-.091-.012-.181-.024-.272-.034q-.486-.056-.974-.094h-3.566c-.327.025-.652.056-.978.094-.087.01-.173.022-.26.033q-.872.107-1.734.281c-.064.013-.13.025-.193.039q-.943.2-1.866.474c-.042.012-.083.026-.124.039q-.393.119-.776.254l-.117.041a8.176,8.176,0,0,0,.714,1.512Zm0,0" transform="translate(-291.196 -530.255)"/><path class="g" d="M8512.694,6030.958l-3.11,2.19-2.9,2.04-.205.143,3.1,2.183,3.11,2.19c1.776,1.248,2.073-6.69.892-8.512-.238-.366-.535-.486-.892-.234Zm-12.435,0c-.354-.25-.65-.134-.888.224-1.194,1.8-.9,9.771.888,8.521l3.111-2.191,3.1-2.182-.2-.144-2.9-2.039Zm0,0" transform="translate(-291.156 -555.77)"/><path class="h" d="M8557.659,5627.295c3.425,6.048,14.95,10.016,19.346,7.28l.014-.008a15.775,15.775,0,0,0-5.669-13.034,17.95,17.95,0,0,0-4.258-2.716,14.622,14.622,0,0,0-6.178-1.395c-.182,0-.361.008-.539.02.574,2.037-.57,6.088-2.716,9.853Zm0,0" transform="translate(-345.073 -178.011)"/><path class="i" d="M8410.129,5627.3c2.146-3.765,3.291-7.815,2.717-9.852-.174-.01-.346-.017-.52-.019a15.407,15.407,0,0,0-8.051,2.379c-.064.039-.128.082-.193.122-.164.1-.33.206-.492.315l-.073.051a16.019,16.019,0,0,0-7.283,14.276l.03.018c5.26,3.277,10.672-1.687,13.865-7.29Zm0,0" transform="translate(-197.543 -178.015)"/></g></svg>